<svg width="512" height="512" viewBox="0 0 512 512" xmlns="http://www.w3.org/2000/svg">
  <defs>
    <linearGradient id="sky" x1="0" y1="0" x2="0" y2="1">
      <stop offset="0" stop-color="#06060f"/>
      <stop offset="0.55" stop-color="#11142f"/>
      <stop offset="1" stop-color="#241a4c"/>
    </linearGradient>
    <linearGradient id="lit" x1="0" y1="0" x2="0" y2="1">
      <stop offset="0" stop-color="#7afce0"/>
      <stop offset="0.5" stop-color="#34d0ff"/>
      <stop offset="1" stop-color="#5566e6"/>
    </linearGradient>
    <linearGradient id="shadow" x1="0" y1="0" x2="0" y2="1">
      <stop offset="0" stop-color="#1f3a86"/>
      <stop offset="1" stop-color="#141a44"/>
    </linearGradient>
    <radialGradient id="glow" cx="0.5" cy="0.38" r="0.55">
      <stop offset="0" stop-color="#34d0ff" stop-opacity="0.45"/>
      <stop offset="1" stop-color="#34d0ff" stop-opacity="0"/>
    </radialGradient>
    <radialGradient id="vig" cx="0.5" cy="0.5" r="0.75">
      <stop offset="0.55" stop-color="#000000" stop-opacity="0"/>
      <stop offset="1" stop-color="#000000" stop-opacity="0.45"/>
    </radialGradient>
    <filter id="bloom" x="-60%" y="-60%" width="220%" height="220%"><feGaussianBlur stdDeviation="9"/></filter>
    <filter id="soft" x="-40%" y="-40%" width="180%" height="180%"><feGaussianBlur stdDeviation="6"/></filter>
    <filter id="grain"><feTurbulence type="fractalNoise" baseFrequency="0.9" numOctaves="2" stitchTiles="stitch" result="n"/>
      <feColorMatrix in="n" type="matrix" values="0 0 0 0 1  0 0 0 0 1  0 0 0 0 1  0 0 0 0.6 0"/></filter>
    <clipPath id="r"><rect width="512" height="512" rx="116"/></clipPath>
  </defs>
  <g clip-path="url(#r)">
    <rect width="512" height="512" fill="url(#sky)"/>
    <circle cx="256" cy="200" r="190" fill="url(#glow)"/>
    <g fill="#bfe9ff">
      <circle cx="90" cy="80" r="2.2" opacity="0.9"/><circle cx="150" cy="120" r="1.4" opacity="0.6"/>
      <circle cx="360" cy="70" r="2" opacity="0.8"/><circle cx="430" cy="110" r="1.5" opacity="0.6"/>
      <circle cx="60" cy="150" r="1.3" opacity="0.5"/><circle cx="410" cy="170" r="1.7" opacity="0.7"/>
      <circle cx="300" cy="55" r="1.4" opacity="0.6"/><circle cx="200" cy="70" r="1.6" opacity="0.65"/>
      <circle cx="470" cy="60" r="1.2" opacity="0.5"/><circle cx="130" cy="50" r="1.5" opacity="0.6"/>
    </g>
    <path d="M70 392 L190 250 L262 330 L210 392 Z" fill="url(#shadow)" opacity="0.85"/>
    <path d="M442 392 L330 258 L262 330 L300 392 Z" fill="url(#shadow)" opacity="0.85"/>
    <rect x="0" y="320" width="512" height="100" fill="#101633" opacity="0.5" filter="url(#soft)"/>
    <!-- 主峰：面分割 -->
    <path d="M286 120 L452 392 L286 392 Z" fill="#243a8c"/>
    <path d="M120 392 L286 120 L286 392 Z" fill="url(#lit)"/>
    <!-- ネオン稜線（ブルーム） -->
    <path d="M120 392 L286 120 L452 392" fill="none" stroke="#7afce0" stroke-width="7" filter="url(#bloom)" opacity="0.8"/>
    <path d="M120 392 L286 120 L452 392" fill="none" stroke="#aef8ea" stroke-width="3" opacity="0.95"/>
    <!-- 雪冠的ハイライト -->
    <path d="M286 120 L262 175 L286 192 L312 168 L286 120 Z" fill="#eafffb" opacity="0.9"/>
    <!-- 頂のスパーク -->
    <g filter="url(#bloom)"><path d="M286 96 L298 150 L350 162 L298 174 L286 226 L274 174 L222 162 L274 150 Z" fill="#aef8ea" opacity="0.6"/></g>
    <path d="M286 110 L294 152 L336 162 L294 172 L286 214 L278 172 L236 162 L278 152 Z" fill="#f2fffd"/>
    <!-- 波形（Reader） -->
    <path d="M64 344 L120 344 L152 314 L184 372 L220 300 L256 356 L292 322 L330 364 L368 318 L406 352 L448 344"
          fill="none" stroke="#5cffd6" stroke-width="11" filter="url(#bloom)" opacity="0.45" stroke-linecap="round" stroke-linejoin="round"/>
    <path d="M64 344 L120 344 L152 314 L184 372 L220 300 L256 356 L292 322 L330 364 L368 318 L406 352 L448 344"
          fill="none" stroke="#7afce0" stroke-width="6" stroke-linecap="round" stroke-linejoin="round" opacity="0.95"/>
    <rect width="512" height="512" filter="url(#grain)" opacity="0.08"/>
    <rect width="512" height="512" fill="url(#vig)"/>
  </g>
</svg>
